<?xml version="1.0" encoding="UTF-8"?>
<svg width="66px" height="72px" viewBox="0 0 66 72" version="1.1" xmlns="http://www.w3.org/2000/svg" xmlns:xlink="http://www.w3.org/1999/xlink">
    <!-- Generator: Sketch 57.1 (83088) - https://sketch.com -->
    <title>buddy2</title>
    <desc>Created with Sketch.</desc>
    <g id="Page-1" stroke="none" stroke-width="1" fill="none" fill-rule="evenodd">
        <g id="buddy2" fill="#000000" fill-rule="nonzero">
            <path d="M64.5602188,47.7278671 L57.2490158,39.6448669 L57.2490158,32.055767 C57.2490158,29.0897636 56.586319,26.2843665 55.4280167,23.7528648 C58.7385178,22.8773651 63.8876191,20.514265 64.3571167,14.2388649 C65.0538177,4.9263659 52.5125198,-0.2295341 43.5942192,0.0491657 C43.5942192,0.0491657 56.8206177,6.9908657 54.6027222,12.9906654 C53.9953156,14.6337661 51.9813195,15.6169662 49.3829193,16.1825657 C48.2309189,15.3004646 46.983017,14.5426655 45.6529198,13.9248657 C35.8791199,3.4905653 15.8638192,7.4183655 15.8638192,7.4183655 C22.9706193,8.6562653 26.7329179,11.172966 26.7329179,11.172966 C26.7329179,11.172966 9.3144189,7.8526649 0.2567178,27.3614655 C0.2567178,27.3614655 6.6748172,22.4485665 14.8775188,19.8933659 C13.4638187,21.7897664 12.3680183,23.9951668 11.6786186,26.4096642 L11.6745178,26.4078637 C11.6745178,26.4078637 8.1996185,35.3043671 13.2162182,62.6166154 C13.2162182,62.6166154 13.7563183,55.2793656 16.8074181,47.0206643 C18.8033173,48.9658662 21.1989167,50.3894654 23.8380196,51.1322671 L22.3822167,71.9615785 L38.702919,71.9615785 L38.702919,63.3149263 C38.702919,59.0031587 50.1273193,66.4791948 54.3958206,66.261223 C58.6643219,66.0431444 58.2877197,62.0603639 58.2877197,62.0603639 L58.2877197,60.3682863 C59.3984222,59.9221575 60.1484222,59.1193849 60.1484222,58.1935884 C60.1484222,57.7270662 59.9461212,57.2956087 59.6169204,56.9195482 C59.9461211,56.5434877 60.1484222,56.1120226 60.1484222,55.645569 C60.1484222,54.9762651 59.7521209,54.3721658 59.1175155,53.9174654 L62.7487182,52.7198641 C68.1833191,51.1625671 64.5602188,47.7278671 64.5602188,47.7278671 Z" id="Path"></path>
        </g>
    </g>
</svg>