<?xml version="1.0" encoding="UTF-8"?>
<svg width="58px" height="74px" viewBox="0 0 58 74" version="1.1" xmlns="http://www.w3.org/2000/svg" xmlns:xlink="http://www.w3.org/1999/xlink">
    <!-- Generator: Sketch 57.1 (83088) - https://sketch.com -->
    <title>buddy4</title>
    <desc>Created with Sketch.</desc>
    <g id="Page-1" stroke="none" stroke-width="1" fill="none" fill-rule="evenodd">
        <g id="buddy4" fill="#000000" fill-rule="nonzero">
            <path d="M56.1517792,49.4888496 L48.8405762,41.4059486 L48.8405762,33.8168487 C48.8405762,32.1434516 48.6124802,30.5271491 48.22538,28.9736518 C62.4661789,16.16325 51.350174,0.2773504 51.350174,0.2773504 C50.0959778,10.4497509 43.9645768,7.9415502 31.0052796,5.7952499 C18.0457764,3.6488504 14.980177,11.9111499 14.980177,11.9111499 C7.3051778,12.4290504 2.5731774,19.1770496 1.1323777,26.1869506 C-0.6831226,35.0198516 2.7451783,47.4961509 12.2521783,50.5559501 C13.3541776,50.9106483 14.4559785,51.0966491 15.550377,51.1625518 L13.9737779,73.7226485 L30.2943765,73.7226485 L30.2943765,65.0760497 C30.2943765,60.7642516 41.718876,68.2402495 45.9873773,68.0222472 C50.2558748,67.8042525 49.879181,63.82135 49.879181,63.82135 L49.879181,62.1293487 C50.9898759,61.6831512 51.7399751,60.8804473 51.7399751,59.9546508 C51.7399751,59.4881515 51.5376741,59.0566482 51.208481,58.6805495 C51.5376741,58.30455 51.7399751,57.8730468 51.7399751,57.4065474 C51.7399751,56.7373503 51.3436815,56.133148 50.7089769,55.6784514 L54.3402788,54.4809493 C59.7747803,52.9235497 56.1517792,49.4888496 56.1517792,49.4888496 Z" id="Path"></path>
        </g>
    </g>
</svg>