<?xml version="1.0" encoding="UTF-8"?>
<svg width="64px" height="70px" viewBox="0 0 64 70" version="1.1" xmlns="http://www.w3.org/2000/svg" xmlns:xlink="http://www.w3.org/1999/xlink">
    <!-- Generator: Sketch 57.1 (83088) - https://sketch.com -->
    <title>buddy1</title>
    <desc>Created with Sketch.</desc>
    <g id="Page-1" stroke="none" stroke-width="1" fill="none" fill-rule="evenodd">
        <g id="buddy1" fill="#000000" fill-rule="nonzero">
            <path d="M58.4007034,45.1189003 L51.0895004,37.0359001 L51.0895004,18.4634991 L56.3860016,15.8712998 L57.9188995,19.2812996 L56.3860016,30.3264999 L63.3534012,19.2812996 L57.7795029,11.1537991 L51.0895005,13.5123997 L51.0895005,1.9350996 L44.541401,7.5410995 L40.0821992,0.6473999 L35.3353997,6.9158993 L29.6310006,0.6473999 L26.0079995,7.5410995 L20.5733987,0.6473999 L17.5077,9.4456997 L9.5648995,3.0509005 L11.0872002,13.4022007 L2.1794005,12.1182995 L7.6140004,19.2812996 L0.6465998,21.8817997 L7.1959,25.5886002 L1.3432999,31.301899 L12.2751999,34.5746994 C13.6513996,37.6735001 15.9958992,40.4763985 18.0788002,42.7944984 L16.2226009,69.3526001 L32.5433006,69.3526001 L32.5433006,60.7060013 C32.5433006,56.3942032 43.9677009,63.8702011 48.2361984,63.652298 C52.5046997,63.4341965 52.1280975,59.4513016 52.1280975,59.4513016 L52.1280975,57.7593003 C53.2388,57.3131028 53.9888992,56.5103989 53.9888992,55.5846024 C53.9888992,55.1181031 53.786499,54.6865998 53.4573974,54.3106003 C53.786499,53.9345017 53.9888992,53.5031014 53.9888992,53.0365982 C53.9888992,52.3672981 53.5924987,51.7631988 52.957901,51.3084984 L56.5891037,50.1109009 C62.0236969,48.5536003 58.4007034,45.1189003 58.4007034,45.1189003 Z" id="Path"></path>
        </g>
    </g>
</svg>