<?xml version="1.0" encoding="UTF-8"?>
<svg width="58px" height="60px" viewBox="0 0 58 60" version="1.1" xmlns="http://www.w3.org/2000/svg" xmlns:xlink="http://www.w3.org/1999/xlink">
    <!-- Generator: Sketch 57.1 (83088) - https://sketch.com -->
    <title>buddy3</title>
    <desc>Created with Sketch.</desc>
    <g id="Page-1" stroke="none" stroke-width="1" fill="none" fill-rule="evenodd">
        <g id="buddy3" fill="#000000" fill-rule="nonzero">
            <path d="M56.4205856,35.7197533 L49.1093902,27.6367531 L49.1093902,20.0476532 C49.1093902,9.0013542 40.1544876,0.0465546 29.1081886,0.0465546 C25.4653854,0.0465546 22.0604858,1.0358553 19.1186866,2.7374544 C16.3598861,-0.6172447 11.0574874,-0.3797455 7.0734863,2.0949545 C0.1398868,6.4017553 -0.5693131,15.803855 1.2542877,23.0283556 C3.3316879,31.2581568 11.2150879,36.7528543 9.1070881,46.059556 C9.1070881,46.059556 12.0396881,46.0186548 15.4792881,42.2565546 L14.242487,59.9534454 L30.5631867,59.9534454 L30.5631867,51.3069076 C30.5631867,46.9951553 41.987587,54.4711151 46.2560883,54.2531509 C50.5245896,54.0351257 50.1479874,50.0522308 50.1479874,50.0522308 L50.1479874,48.3602523 C51.2586899,47.9140548 52.0087891,47.1113547 52.0087891,46.1855544 C52.0087891,45.7189521 51.8063889,45.2875556 51.4772873,44.9114531 C51.8063889,44.5354536 52.0087891,44.1039542 52.0087891,43.6374548 C52.0087891,42.9682539 51.6123886,42.3640554 50.9777909,41.909355 L54.608986,40.7117537 C60.0435867,39.1544533 56.4205856,35.7197533 56.4205856,35.7197533 Z" id="Path"></path>
        </g>
    </g>
</svg>