<?xml version="1.0" encoding="UTF-8"?>
<svg width="56px" height="68px" viewBox="0 0 56 68" version="1.1" xmlns="http://www.w3.org/2000/svg" xmlns:xlink="http://www.w3.org/1999/xlink">
    <!-- Generator: Sketch 57.1 (83088) - https://sketch.com -->
    <title>buddy5</title>
    <desc>Created with Sketch.</desc>
    <g id="Page-1" stroke="none" stroke-width="1" fill="none" fill-rule="evenodd">
        <g id="buddy5" fill="#000000" fill-rule="nonzero">
            <path d="M54.4740372,43.2686501 L47.1628418,35.1856499 L47.1628418,27.59655 C47.1628418,26.6245499 47.0699387,25.6765518 46.9359398,24.7416496 C47.5987396,25.0485496 48.3344421,25.2246513 49.1128388,25.2246513 C51.9809418,25.2246513 54.306038,22.8996505 54.306038,20.0315494 C54.306038,17.9629497 53.0935365,16.1821498 51.3432389,15.3471507 C51.3856431,15.07975 51.4139405,14.8076495 51.4139405,14.5282496 C51.4139405,11.6602496 49.0889436,9.3351496 46.2207413,9.3351496 C46.1975403,9.3351496 46.1750412,9.3383501 46.1517411,9.3386496 C46.193039,9.0749491 46.2207413,8.80665 46.2207413,8.5314501 C46.2207413,5.663349 43.8957405,3.3383501 41.0276413,3.3383501 C40.0996399,3.3383501 39.2304382,3.5846498 38.4764404,4.0111502 C37.7776413,1.9685496 35.8458404,0.49765 33.5664406,0.49765 C31.8885384,0.49765 30.4008408,1.2968501 29.4514389,2.5314501 C28.50214,1.29685 27.0144386,0.49765 25.3366394,0.49765 C23.0726395,0.49765 21.1523399,1.9489497 20.4415398,3.9699496 C19.6000405,3.4869498 18.6273384,3.2067498 17.5874405,3.2067498 C14.7734394,3.2067498 12.4358406,5.2302493 11.940239,7.9007491 C11.39534,7.7066497 10.811039,7.5954493 10.19944,7.5954493 C7.33144,7.5954493 5.00634,9.9204501 5.00634,12.7885493 C5.00634,13.1301497 5.041439,13.4633502 5.1044407,13.7865504 C2.8575401,14.2979506 1.179039,16.3039492 1.179039,18.7055491 C1.179039,20.0634497 1.7178402,21.2934493 2.5899391,22.2008513 C1.2476406,23.0196494 0.3429394,24.4841498 0.3429394,26.1713484 C0.3429394,28.1754492 1.6136399,29.8697508 3.3880406,30.5293501 C3.1376401,31.084049 2.9906407,31.6950491 2.9906407,32.3431509 C2.9906407,34.7867506 4.9714394,36.7675512 7.4149399,36.7675512 C7.6049404,36.7675512 7.7860394,36.7348516 7.9697399,36.7116506 C7.4672394,37.3941495 7.1605396,38.2291486 7.1605396,39.1416509 C7.1605396,41.4149511 9.0033397,43.2577512 11.2765388,43.2577512 C12.3575401,43.2577512 13.3333396,42.8320501 14.0678405,42.1505506 L12.2960395,67.5023496 L28.6166381,67.5023496 L28.6166381,58.855751 C28.6166381,54.5439529 40.0411414,62.0199508 44.3096389,61.8020477 C48.5781402,61.5839462 48.2014388,57.6010513 48.2014388,57.6010513 L48.2014388,55.90905 C49.3121413,55.4628525 50.0622405,54.6601486 50.0622405,53.7343521 C50.0622405,53.2678528 49.8599395,52.8363495 49.5307387,52.46035 C49.8599394,52.0842514 50.0622405,51.6528511 50.0622405,51.1863517 C50.0622405,50.5170516 49.6659392,49.9129485 49.0312423,49.4582481 L52.6625366,48.2606506 C58.0970383,46.7033501 54.4740372,43.2686501 54.4740372,43.2686501 Z" id="Path"></path>
        </g>
    </g>
</svg>